<svg width="136" height="29" viewBox="0 0 136 29" fill="none" xmlns="http://www.w3.org/2000/svg">
<path d="M43.9844 9.5V19.3594C43.9844 20.2448 43.8177 20.9896 43.4844 21.5938C43.1615 22.2083 42.7135 22.7083 42.1406 23.0938C41.5677 23.4792 40.9115 23.776 40.1719 23.9844L39.3438 22.0312C40.9896 21.5521 41.8125 20.6927 41.8125 19.4531V9.5H43.9844ZM49.5594 11.9062C50.3302 11.9062 51.0333 12.0938 51.6687 12.4688C52.3042 12.8333 52.8146 13.3333 53.2 13.9688C53.5958 14.5938 53.7937 15.2969 53.7937 16.0781C53.7937 16.8594 53.5958 17.5625 53.2 18.1875C52.8146 18.8125 52.3042 19.3125 51.6687 19.6875C51.0333 20.0521 50.3302 20.2344 49.5594 20.2344C48.799 20.2344 48.0958 20.0521 47.45 19.6875C46.8146 19.3125 46.3042 18.8125 45.9187 18.1875C45.5333 17.5625 45.3406 16.8594 45.3406 16.0781C45.3406 15.2969 45.5333 14.5938 45.9187 13.9688C46.3042 13.3333 46.8146 12.8333 47.45 12.4688C48.0958 12.0938 48.799 11.9062 49.5594 11.9062ZM49.5594 13.8281C49.1844 13.8281 48.8354 13.9167 48.5125 14.0938C48.1896 14.2708 47.9292 14.526 47.7312 14.8594C47.5437 15.1927 47.45 15.599 47.45 16.0781C47.45 16.5573 47.5437 16.9635 47.7312 17.2969C47.9292 17.6302 48.1896 17.8854 48.5125 18.0625C48.8354 18.2292 49.1844 18.3125 49.5594 18.3125C49.9344 18.3125 50.2833 18.2292 50.6062 18.0625C50.9292 17.8854 51.1896 17.6302 51.3875 17.2969C51.5854 16.9635 51.6844 16.5573 51.6844 16.0781C51.6844 15.599 51.5854 15.1927 51.3875 14.8594C51.1896 14.526 50.9292 14.2708 50.6062 14.0938C50.2833 13.9167 49.9344 13.8281 49.5594 13.8281ZM56.8531 8.75V20H54.8687V8.75H56.8531ZM60.4594 8.75V20H58.475V8.75H60.4594ZM63.3312 12.1094L65.5812 17.1406L67.7687 12.1094H70.0344L64.3 23.75H62.05L64.425 19.4219L61.0187 12.1094H63.3312Z" fill="#2D2E2C"/>
<path d="M81.3281 9.45312V20H79.1562V13.625L76.4688 16.5625H75.8438L73.125 13.625V20H70.9531V9.45312H71.6875L76.1562 14.1094L80.5938 9.45312H81.3281ZM86.9144 11.9062C87.3415 11.9062 87.7738 12.0052 88.2113 12.2031C88.6488 12.401 89.0133 12.6667 89.305 13V12.1094H91.2894V20H89.305V18.6719C89.0758 19.099 88.7425 19.4688 88.305 19.7812C87.8675 20.0833 87.3571 20.2344 86.7738 20.2344C86.1383 20.2344 85.5498 20.0729 85.0081 19.75C84.4769 19.4271 84.0498 18.9583 83.7269 18.3438C83.404 17.7292 83.2425 16.9844 83.2425 16.1094C83.2425 15.2344 83.404 14.4844 83.7269 13.8594C84.0602 13.2344 84.5029 12.7552 85.055 12.4219C85.6175 12.0781 86.2373 11.9062 86.9144 11.9062ZM87.3206 13.8438C86.904 13.8438 86.5446 13.9531 86.2425 14.1719C85.9508 14.3802 85.7217 14.6562 85.555 15C85.3883 15.3438 85.305 15.7135 85.305 16.1094C85.305 16.7031 85.4821 17.2083 85.8363 17.625C86.2008 18.0417 86.68 18.25 87.2738 18.25C87.6279 18.25 87.956 18.1562 88.2581 17.9688C88.5706 17.7812 88.8206 17.5208 89.0081 17.1875C89.206 16.8438 89.305 16.4323 89.305 15.9531V14.8281C89.0238 14.526 88.7165 14.2865 88.3831 14.1094C88.0602 13.9323 87.706 13.8438 87.3206 13.8438ZM95.3913 12.1094V13.2344C95.6308 12.9115 95.9538 12.6094 96.36 12.3281C96.7767 12.0469 97.2506 11.9062 97.7819 11.9062C98.584 11.9062 99.2558 12.1771 99.7975 12.7188C100.339 13.2604 100.61 14.0729 100.61 15.1562V20H98.6256L98.61 15.4219C98.61 14.8906 98.4798 14.4948 98.2194 14.2344C97.9694 13.974 97.6204 13.8438 97.1725 13.8438C96.8183 13.8438 96.485 13.9583 96.1725 14.1875C95.8704 14.4167 95.61 14.6875 95.3913 15V20H93.4069V12.1094H95.3913ZM105.696 11.9062C106.123 11.9062 106.556 12.0052 106.993 12.2031C107.431 12.401 107.795 12.6667 108.087 13V12.1094H110.071V20H108.087V18.6719C107.858 19.099 107.524 19.4688 107.087 19.7812C106.649 20.0833 106.139 20.2344 105.556 20.2344C104.92 20.2344 104.332 20.0729 103.79 19.75C103.259 19.4271 102.832 18.9583 102.509 18.3438C102.186 17.7292 102.024 16.9844 102.024 16.1094C102.024 15.2344 102.186 14.4844 102.509 13.8594C102.842 13.2344 103.285 12.7552 103.837 12.4219C104.399 12.0781 105.019 11.9062 105.696 11.9062ZM106.103 13.8438C105.686 13.8438 105.326 13.9531 105.024 14.1719C104.733 14.3802 104.504 14.6562 104.337 15C104.17 15.3438 104.087 15.7135 104.087 16.1094C104.087 16.7031 104.264 17.2083 104.618 17.625C104.983 18.0417 105.462 18.25 106.056 18.25C106.41 18.25 106.738 18.1562 107.04 17.9688C107.353 17.7812 107.603 17.5208 107.79 17.1875C107.988 16.8438 108.087 16.4323 108.087 15.9531V14.8281C107.806 14.526 107.498 14.2865 107.165 14.1094C106.842 13.9323 106.488 13.8438 106.103 13.8438ZM115.314 11.9062C115.741 11.9062 116.173 12.0052 116.611 12.2031C117.048 12.401 117.413 12.6667 117.704 13V12.1094H119.689V19.7969C119.689 20.6927 119.491 21.4479 119.095 22.0625C118.699 22.6875 118.173 23.1615 117.517 23.4844C116.861 23.8177 116.142 23.9844 115.361 23.9844C114.663 23.9844 114.09 23.8802 113.642 23.6719C113.194 23.4635 112.777 23.224 112.392 22.9531V21.0781C112.631 21.224 112.881 21.3802 113.142 21.5469C113.413 21.7135 113.715 21.8542 114.048 21.9688C114.392 22.0833 114.788 22.1406 115.236 22.1406C115.704 22.1406 116.126 22.0521 116.501 21.875C116.876 21.6979 117.168 21.4479 117.376 21.125C117.595 20.8125 117.704 20.4531 117.704 20.0469V18.6719C117.475 19.099 117.142 19.4688 116.704 19.7812C116.267 20.0833 115.756 20.2344 115.173 20.2344C114.538 20.2344 113.949 20.0729 113.408 19.75C112.876 19.4271 112.449 18.9583 112.126 18.3438C111.803 17.7292 111.642 16.9844 111.642 16.1094C111.642 15.2344 111.803 14.4844 112.126 13.8594C112.46 13.2344 112.902 12.7552 113.454 12.4219C114.017 12.0781 114.637 11.9062 115.314 11.9062ZM115.72 13.8594C115.303 13.8594 114.944 13.9688 114.642 14.1875C114.35 14.3958 114.121 14.6719 113.954 15.0156C113.788 15.349 113.704 15.7135 113.704 16.1094C113.704 16.7031 113.881 17.2083 114.236 17.625C114.6 18.0312 115.079 18.2344 115.673 18.2344C116.027 18.2344 116.355 18.1458 116.658 17.9688C116.97 17.7812 117.22 17.5208 117.408 17.1875C117.605 16.8438 117.704 16.4323 117.704 15.9531V14.8281C117.423 14.526 117.116 14.2917 116.783 14.125C116.46 13.9479 116.105 13.8594 115.72 13.8594ZM125.259 11.9062C126.03 11.9062 126.692 12.0729 127.244 12.4062C127.806 12.7396 128.233 13.2031 128.525 13.7969C128.827 14.3802 128.978 15.0573 128.978 15.8281V16.6719H123.259C123.364 17.2031 123.624 17.6302 124.041 17.9531C124.457 18.276 124.968 18.4375 125.572 18.4375C126.145 18.4375 126.666 18.3229 127.134 18.0938C127.603 17.8646 127.978 17.6302 128.259 17.3906L128.244 19.2344C127.994 19.4531 127.619 19.6771 127.119 19.9062C126.629 20.125 126.088 20.2344 125.494 20.2344C124.713 20.2344 123.999 20.0573 123.353 19.7031C122.718 19.349 122.207 18.8646 121.822 18.25C121.447 17.6354 121.259 16.9323 121.259 16.1406C121.259 15.3698 121.431 14.6667 121.775 14.0312C122.119 13.3958 122.593 12.8854 123.197 12.5C123.801 12.1042 124.489 11.9062 125.259 11.9062ZM125.213 13.6406C124.723 13.6406 124.311 13.7917 123.978 14.0938C123.645 14.3958 123.416 14.8021 123.291 15.3125H127.072C127.03 14.75 126.822 14.3333 126.447 14.0625C126.072 13.7812 125.66 13.6406 125.213 13.6406ZM135.439 14.3281C135.106 14.1406 134.757 14.0469 134.393 14.0469C133.934 14.0469 133.554 14.1979 133.252 14.5C132.95 14.7917 132.684 15.1562 132.455 15.5938V20H130.471V12.1094H132.455V13.5938C132.726 13.125 133.044 12.7344 133.408 12.4219C133.783 12.1094 134.205 11.9531 134.674 11.9531C134.955 11.9531 135.21 12 135.439 12.0938V14.3281Z" fill="#1FC074"/>
<path d="M0.00203411 15.4348C0.450556 16.7067 1.06842 17.8527 1.94315 18.8574C5.88087 23.38 13.3421 22.3216 15.8685 16.8781C16.5275 15.4584 16.7592 13.9407 16.7735 12.3947C16.7873 10.8764 16.7243 9.35756 16.686 7.83869C16.6585 6.7607 16.6122 5.68099 16.9211 4.6307C17.6814 2.04827 19.4629 0.624043 22.0254 0.132371C23.5174 -0.15386 24.9785 0.0221499 26.3527 0.679443C28.6822 1.79321 29.8402 3.7143 29.926 6.2748C29.9986 8.43654 30.0146 10.6023 29.9878 12.7652C29.9723 14.0296 29.8516 15.2951 29.7303 16.5555C29.5261 18.6762 28.8258 20.6371 27.704 22.4371C26.0209 25.1384 23.645 27.0023 20.6632 27.9961C15.2043 29.815 10.0085 29.2022 5.28475 25.8309C1.87908 23.4002 0.203983 19.94 0.00203411 15.7476C-0.00254264 15.6437 0.00203411 15.5392 0.00203411 15.4348Z" fill="#1FC074"/>
<path d="M13.6435 13.1478C13.6178 16.1532 11.2361 18.5793 8.22292 18.5695C5.24804 18.5602 2.78975 16.1036 2.86012 13.0653C2.93392 9.8498 5.42367 7.68748 8.25954 7.68171C11.2424 7.67537 13.6624 10.1482 13.6435 13.1478Z" fill="#2D2E2C"/>
</svg>
