<svg width="461" height="446" viewBox="0 0 461 446" fill="none" xmlns="http://www.w3.org/2000/svg">
<path d="M224.375 384.79C220.764 394.577 215.095 403.164 208.768 410.247C205.511 413.746 202.255 416.957 198.813 419.712C197.108 421.099 195.438 422.417 193.768 423.617C192.063 424.817 190.393 425.916 188.756 426.947C185.534 429.026 182.345 430.7 179.493 432.103C176.659 433.523 174.094 434.604 171.9 435.416C167.564 437.072 164.949 437.765 164.949 437.765C164.949 437.765 164.544 435.01 164.173 430.48C164.021 428.215 163.835 425.493 163.616 422.451C163.43 419.408 163.346 416.061 163.228 412.444C163.177 410.652 163.177 408.81 163.194 406.917C163.194 405.023 163.194 403.079 163.245 401.119C163.413 397.214 163.532 393.123 164.004 389.067C164.78 380.868 166.316 372.552 169.302 364.506C172.221 356.443 176.406 349.107 181.113 342.345C183.374 338.948 185.922 335.736 188.318 332.66C189.533 331.122 190.798 329.651 192.03 328.197C193.228 326.744 194.426 325.357 195.624 324.005C198.053 321.334 200.281 318.833 202.373 316.635C204.499 314.455 206.389 312.511 207.975 310.871C211.18 307.66 213.273 305.817 213.273 305.817C213.273 305.817 214.825 308.048 217.052 312.122C218.183 314.167 219.448 316.669 220.697 319.577C221.962 322.484 223.312 325.831 224.426 329.499C224.999 331.341 225.556 333.268 226.096 335.28C226.585 337.291 227.024 339.37 227.429 341.534C228.273 345.861 228.694 350.425 228.914 355.209C229.167 364.759 227.935 374.986 224.375 384.79Z" fill="url(#paint0_linear_70_156)"/>
<path d="M228.88 360.432L228.931 358.843C226.889 359.891 224.257 361.345 221.321 363.137C218.335 364.911 215.011 367.024 211.67 369.475C204.853 374.36 197.834 380.48 192.232 388.086C195.725 379.854 198.796 371.453 201.513 362.934C202.069 361.193 202.744 359.536 203.504 357.947C204.229 356.341 205.056 354.803 205.967 353.349C207.823 350.425 209.865 347.738 212.092 345.27C214.353 342.819 216.631 340.587 218.925 338.593C221.22 336.598 223.515 334.857 225.539 333.353C225.405 332.879 225.27 332.423 225.151 331.967C218.689 336.733 210.033 343.951 204.364 353.468C208.785 338.17 211.856 322.501 213.813 306.696C213.459 306.155 213.256 305.851 213.256 305.851C213.256 305.851 212.986 306.087 212.497 306.527C210.54 322.264 207.486 337.866 203.082 353.096C203.301 341.957 198.425 332.017 194.055 325.797L193.194 326.794C194.578 328.789 195.928 331.105 197.21 333.708C198.475 336.311 199.657 339.218 200.433 342.312C201.243 345.405 201.816 348.735 201.782 352.132C201.782 353.84 201.681 355.564 201.462 357.305C201.192 359.029 200.787 360.77 200.23 362.511C197.514 370.98 194.477 379.364 190.984 387.545C192.587 378.248 190.9 369.104 188.267 361.683C186.884 357.93 185.315 354.617 183.762 351.794C182.159 348.955 180.607 346.639 179.358 344.915L178.633 346.047C181.636 350.239 186.108 357.643 188.537 366.906C191.018 376.135 191.389 387.292 186.58 397.62C185.078 400.865 183.475 404.077 181.906 407.288C180.219 410.449 178.65 413.661 176.861 416.771C180.033 405.429 178.228 393.935 175.343 385.348C172.39 376.693 168.526 370.861 167.615 369.577L167.176 371.149C168.121 372.586 169.657 375.189 171.327 378.772C173.031 382.356 174.702 386.852 175.866 391.991C178.177 402.184 178.093 415.098 171.361 426.288C169.285 429.838 167.008 433.286 164.797 436.751C164.882 437.393 164.932 437.765 164.932 437.765C164.932 437.765 165.287 437.664 165.894 437.478C168.121 433.996 170.399 430.548 172.491 426.964C179.19 415.842 189.347 408.286 198.982 402.691C203.757 399.902 208.43 397.687 212.261 395.963C216.108 394.256 219.28 393.106 220.967 392.498L221.811 390.723C220.275 391.247 213.104 393.749 204.55 398.161C195.911 402.572 185.888 408.725 178.009 417.414C179.797 414.303 181.383 411.058 183.071 407.897C184.657 404.668 186.259 401.457 187.761 398.194C192.57 387.883 200.247 380.057 208.093 373.803C215.989 367.599 223.97 363.035 228.88 360.432Z" fill="white"/>
<path d="M72.1821 383.15C74.5443 388.881 75.9616 394.797 77.0077 400.798C77.632 403.722 77.9526 406.798 78.4419 409.672C78.6613 411.126 78.83 412.596 78.9988 414.033C79.2181 415.436 79.4037 416.822 79.5724 418.191C79.8761 420.963 80.2642 423.482 80.551 425.832C80.686 427.015 80.821 428.13 80.9391 429.178C81.0741 430.21 81.2091 431.156 81.3441 432.035C81.8165 435.551 82.0021 437.782 82.0021 437.782C82.0021 437.782 79.8762 437.732 76.2147 437.157C75.3036 437.022 74.2912 436.836 73.1776 436.633C72.1146 436.396 70.9504 436.092 69.7356 435.754C67.289 435.061 64.4712 434.199 61.6366 432.897C60.2024 432.272 58.7007 431.579 57.1653 430.801C55.6805 430.007 54.1788 429.094 52.6434 428.13C49.505 426.237 46.586 423.837 43.5826 421.183C37.7953 415.757 32.5478 408.759 29.1901 400.561C25.9168 392.346 24.8369 383.657 25.225 375.713C25.5456 371.707 25.9843 367.937 26.9292 364.404C27.3678 362.646 27.8065 360.956 28.3296 359.333C28.9033 357.711 29.4938 356.172 30.0844 354.719C31.2317 351.811 32.6322 349.242 33.9145 347.028C34.5557 345.929 35.18 344.915 35.7874 343.985C36.4286 343.055 37.036 342.227 37.5928 341.5C39.8369 338.542 41.3217 337.021 41.3217 337.021C41.3217 337.021 42.7221 338.745 44.8312 341.602C45.3543 342.312 45.928 343.106 46.5354 343.934C47.1766 344.78 47.8684 345.675 48.577 346.622C50.0112 348.515 51.4791 350.594 53.1833 352.792C54.0101 353.891 54.8368 355.023 55.6467 356.172C56.5073 357.322 57.4184 358.505 58.262 359.688C59.8987 362.089 61.8053 364.523 63.3745 367.075C66.8166 372.146 69.9043 377.386 72.1821 383.15Z" fill="url(#paint1_linear_70_156)"/>
<path d="M65.2136 369.847L64.6906 369.002C63.6444 370.253 62.3452 371.96 60.9785 374.09C59.6962 376.203 58.4139 378.722 57.2834 381.612C55.208 387.309 54.01 394.577 55.8154 401.812C52.5927 395.574 49.9774 389.033 47.8514 382.339C47.4296 380.97 47.0922 379.601 46.9066 378.231C46.7716 376.845 46.721 375.493 46.7716 374.141C46.8053 371.487 47.4128 368.884 48.1889 366.517C48.9145 364.151 50.0449 361.97 51.2091 360.043C52.3734 358.116 53.5714 356.46 54.8537 355.057L54.2631 354.245C50.298 358.556 45.793 366.027 45.7255 374.851C42.5534 362.748 41.3554 350.155 41.8447 337.663C41.5241 337.257 41.3385 337.038 41.3385 337.038C41.3385 337.038 41.1529 337.241 40.7986 337.612C40.2924 350.205 41.5073 362.9 44.7131 375.104C40.4443 367.464 34.0495 361.142 29.3251 356.646L28.9032 357.761C30.3543 359.164 32.0753 360.77 33.7795 362.528C35.4837 364.303 37.1372 366.247 38.8413 368.292C40.5118 370.354 41.9797 372.603 43.4308 374.952C44.1226 376.135 44.7469 377.369 45.2868 378.654C45.8773 379.922 46.4173 381.24 46.856 382.626C48.9988 389.371 51.631 395.963 54.8874 402.251C50.0112 396.572 44.3419 391.839 38.8413 387.849C36.1923 385.838 33.5095 384.063 31.1473 382.525C28.8526 380.97 26.7773 379.668 25.1575 378.705L25.1744 380.023C29.0382 382.373 35.3487 386.379 41.7266 391.315C44.8481 393.833 48.172 396.521 51.0404 399.597C52.5758 401.102 53.9932 402.708 55.2924 404.432C56.6253 406.139 57.9414 407.931 59.0381 409.892C60.4723 412.343 62.0584 414.709 63.6107 417.092L66.1079 420.558C66.9346 421.724 67.7614 422.873 68.6894 423.955C61.4341 418.191 52.9977 414.117 45.7592 410.973C42.1991 409.401 38.9763 408.117 36.4285 407.187C33.8976 406.257 32.1766 405.632 31.5185 405.446L32.2947 406.917C33.6614 407.407 36.2936 408.252 39.4825 409.52C41.1023 410.145 42.8065 410.889 44.6962 411.666C46.586 412.444 48.577 413.323 50.5849 414.286C58.7513 418.174 67.4577 423.026 74.3418 430.615C76.4847 433.1 78.8638 435.348 81.1922 437.647C81.6984 437.681 81.9852 437.698 81.9852 437.698C81.9852 437.698 81.9515 437.41 81.9177 436.886C79.623 434.587 77.2439 432.373 75.1348 429.905C74.2743 428.959 73.4813 427.978 72.7558 426.964C72.0809 425.916 71.4734 424.851 70.9166 423.769C70.3767 422.687 69.8537 421.606 69.4656 420.49C69.0775 419.357 68.7569 418.225 68.487 417.092C68.217 415.96 67.9976 414.844 67.8289 413.746C67.7108 412.613 67.6264 411.497 67.6096 410.399C67.5589 408.184 67.6096 406.122 67.947 404.077C68.2507 402.048 68.6726 400.172 69.145 398.448C69.6343 396.724 70.2586 395.118 70.8491 393.732C72.0302 390.943 73.1439 388.931 73.8863 387.816L73.5319 386.683C73.2113 387.173 72.2496 388.576 71.2035 390.655C70.1742 392.735 68.9256 395.574 67.9808 398.972C66.1416 405.666 65.6186 414.844 69.5331 423.296C68.6219 422.214 67.7952 421.082 66.9684 419.915L64.4881 416.484C62.9526 414.117 61.3835 411.768 59.9493 409.334C58.8525 407.373 57.9246 405.395 57.2834 403.35C56.6928 401.288 56.2879 399.225 56.0516 397.197C55.7648 393.073 56.0854 389.134 57.0809 385.517C57.9414 381.95 59.4262 378.722 60.8773 376.068C62.3115 373.515 63.9819 371.369 65.2136 369.847Z" fill="white"/>
<path d="M444.346 384.469C441.849 391.568 438.289 398.042 434.273 404.094C432.367 407.136 430.173 410.027 428.148 412.816C427.119 414.202 426.039 415.554 424.993 416.873C423.981 418.191 422.969 419.476 421.956 420.71C419.898 423.178 418.025 425.493 416.236 427.556C414.448 429.601 412.845 431.427 411.512 432.965C408.812 436.007 407.041 437.782 407.041 437.782C407.041 437.782 405.522 435.872 403.312 432.339C402.181 430.564 400.916 428.384 399.667 425.815C398.402 423.245 397.035 420.287 395.888 417.008C395.297 415.368 394.723 413.627 394.167 411.819C393.644 410.01 393.205 408.134 392.766 406.19C391.855 402.285 391.366 398.144 391.062 393.783C390.623 385.128 391.602 375.747 394.774 366.737C398.014 357.744 403.193 349.867 408.998 343.444C412.001 340.266 414.988 337.376 418.16 334.925C419.729 333.691 421.264 332.525 422.8 331.46C424.369 330.412 425.904 329.431 427.406 328.535C430.359 326.727 433.295 325.29 435.893 324.124C438.475 322.923 440.837 322.044 442.828 321.385C446.793 320.05 449.155 319.526 449.155 319.526C449.155 319.526 449.408 322.027 449.577 326.084C449.644 328.13 449.729 330.564 449.813 333.268C449.881 335.99 449.881 338.965 449.914 342.193C449.914 343.799 449.898 345.439 449.847 347.095C449.83 348.786 449.796 350.51 449.729 352.234C449.526 355.682 449.408 359.316 448.953 362.866C448.227 370.118 446.911 377.386 444.346 384.469Z" fill="url(#paint2_linear_70_156)"/>
<path d="M448.497 366.788L448.666 365.605C446.827 366.027 444.414 366.653 441.68 367.616C438.981 368.596 435.994 369.932 432.89 371.673C426.815 375.189 420.387 380.497 416.253 387.883C418.463 380.209 421.163 372.67 424.217 365.3C424.841 363.796 425.567 362.359 426.394 361.024C427.254 359.705 428.199 358.471 429.195 357.322C431.152 355.006 433.497 353.096 435.859 351.49C438.205 349.867 440.719 348.633 443.115 347.653C445.511 346.673 447.772 345.946 449.898 345.456C449.898 345.067 449.914 344.678 449.914 344.289C443.3 345.76 434.121 349.512 427.743 357.204C433.649 344.255 440.938 331.984 449.239 320.439C449.189 319.847 449.155 319.526 449.155 319.526C449.155 319.526 448.835 319.61 448.278 319.745C439.943 331.358 432.603 343.698 426.664 356.713C428.385 346.909 426.866 336.869 425.432 329.752L424.335 330.462C424.774 332.694 425.263 335.263 425.618 337.984C425.972 340.706 426.174 343.579 426.259 346.588C426.309 349.58 426.09 352.606 425.651 355.699C425.415 357.237 425.078 358.759 424.639 360.28C424.234 361.818 423.745 363.356 423.103 364.861C420.033 372.281 417.316 379.837 415.106 387.562C415.494 379.077 414.211 370.811 412.355 363.441C411.495 359.79 410.466 356.375 409.47 353.4C408.525 350.442 407.597 347.89 406.838 345.946L405.944 347.078C407.749 351.778 410.466 359.638 412.288 368.512C414.06 377.403 414.92 387.224 412.507 397.146C411.731 400.273 411.073 403.451 410.398 406.595C409.858 409.773 409.15 412.934 408.728 416.146C407.901 405.632 404.307 395.676 400.798 387.613C397.356 379.634 393.829 373.684 393.087 372.434L392.648 374.175C393.441 375.578 394.993 378.215 396.697 381.646C398.368 385.06 400.359 389.303 402.131 393.985C405.724 403.418 408.694 414.371 407.445 425.984C406.99 429.669 406.787 433.387 406.501 437.089C406.855 437.546 407.041 437.816 407.041 437.816C407.041 437.816 407.277 437.579 407.682 437.157C407.952 433.472 408.154 429.77 408.61 426.102C409.858 414.439 416.995 405.26 424.301 399.513C427.997 396.605 431.675 394.459 434.881 392.971C438.053 391.467 440.584 390.571 442.069 390.148L442.659 388.847C441.292 389.202 435.336 390.943 428.402 395.219C421.568 399.479 413.874 406.511 409.892 416.315C410.314 413.137 411.006 409.993 411.546 406.815C412.22 403.671 412.879 400.527 413.655 397.417C416.067 387.461 422.715 379.939 429.701 375.087C436.669 370.152 444.026 367.819 448.497 366.788Z" fill="white"/>
<path d="M400.713 394.492C398.385 400.172 395.229 405.311 391.737 410.162C390.083 412.596 388.177 414.912 386.456 417.177C385.578 418.309 384.65 419.391 383.756 420.473C382.895 421.555 382.035 422.603 381.174 423.617C379.453 425.612 377.834 427.505 376.349 429.246C375.59 430.091 374.864 430.902 374.189 431.663C373.531 432.407 372.924 433.117 372.367 433.759C370.123 436.295 368.621 437.799 368.621 437.799C368.621 437.799 367.356 436.21 365.483 433.235C365.01 432.491 364.504 431.663 363.981 430.733C363.475 429.821 362.969 428.806 362.446 427.725C361.399 425.544 360.252 423.042 359.341 420.253C358.868 418.85 358.396 417.38 357.957 415.841C357.552 414.303 357.215 412.697 356.894 411.041C356.203 407.694 355.916 404.161 355.764 400.442C355.663 393.056 356.844 385.06 359.965 377.488C363.137 369.949 367.98 363.475 373.295 358.353C376.045 355.834 378.745 353.552 381.613 351.71C383.03 350.763 384.397 349.884 385.781 349.09C387.181 348.312 388.565 347.602 389.881 346.96C392.496 345.641 395.094 344.695 397.372 343.917C398.52 343.529 399.583 343.19 400.595 342.903C401.624 342.633 402.569 342.413 403.43 342.21C406.855 341.449 408.88 341.23 408.88 341.23C408.88 341.23 408.863 343.343 408.643 346.74C408.576 347.585 408.508 348.515 408.441 349.512C408.373 350.527 408.306 351.608 408.238 352.741C408.053 355.023 407.85 357.525 407.648 360.145C407.53 361.463 407.395 362.815 407.243 364.185C407.108 365.571 406.99 367.007 406.804 368.427C406.416 371.25 406.112 374.242 405.539 377.133C404.526 382.981 403.109 388.847 400.713 394.492Z" fill="url(#paint3_linear_70_156)"/>
<path d="M404.931 380.26L405.117 379.296C403.565 379.516 401.523 379.888 399.195 380.496C396.9 381.139 394.352 382.068 391.652 383.353C386.422 385.939 380.786 390.081 377.074 396.132C379.183 389.776 381.782 383.59 384.718 377.589C385.325 376.372 386 375.206 386.759 374.141C387.552 373.093 388.413 372.112 389.324 371.216C391.096 369.391 393.188 367.954 395.263 366.771C397.305 365.571 399.498 364.726 401.557 364.1C403.615 363.458 405.556 363.035 407.344 362.815L407.445 361.852C401.844 362.511 393.913 364.962 388.126 371.031C393.812 360.55 400.865 350.848 408.829 341.99C408.846 341.5 408.846 341.213 408.846 341.213C408.846 341.213 408.576 341.247 408.103 341.314C400.072 350.222 392.985 359.993 387.266 370.54C389.273 362.444 388.75 353.924 388.143 347.822L387.164 348.329C387.333 350.239 387.569 352.437 387.654 354.753C387.738 357.068 387.704 359.485 387.569 362.021C387.417 364.54 387.029 367.058 386.472 369.628C386.186 370.895 385.814 372.163 385.359 373.414C384.937 374.682 384.448 375.933 383.823 377.166C380.854 383.218 378.239 389.438 376.129 395.828C376.737 388.728 376.045 381.73 374.881 375.425C374.375 372.315 373.683 369.374 373.042 366.788C372.434 364.235 371.827 362.021 371.321 360.331L370.494 361.243C371.692 365.334 373.48 372.129 374.577 379.685C375.606 387.275 375.944 395.524 373.649 403.773C372.907 406.376 372.299 409.013 371.658 411.65C371.152 414.303 370.494 416.94 370.106 419.628C369.532 410.804 366.799 402.336 364.133 395.405C361.534 388.543 358.835 383.353 358.278 382.254L357.822 383.725C358.43 384.942 359.611 387.258 360.91 390.216C362.159 393.174 363.711 396.825 365.044 400.831C367.777 408.911 370.038 418.157 368.958 427.86C368.537 430.953 368.402 434.063 368.165 437.174C368.452 437.562 368.621 437.782 368.621 437.782C368.621 437.782 368.807 437.579 369.161 437.224C369.38 434.131 369.532 431.038 369.954 427.961C371.051 418.174 377.243 410.601 383.503 406.071C386.675 403.773 389.813 402.133 392.547 401.034C395.246 399.935 397.372 399.293 398.638 399.023L399.178 397.992C398.03 398.211 392.985 399.361 387.046 402.657C381.225 405.936 374.577 411.616 371.101 419.797C371.489 417.126 372.131 414.506 372.637 411.869C373.278 409.249 373.885 406.629 374.628 404.043C376.922 395.76 382.794 389.709 388.868 386.041C394.909 382.271 401.152 380.801 404.931 380.26Z" fill="white"/>
<path d="M92.6995 99.3584C91.8896 99.088 91.0797 98.8513 90.2698 98.6147" stroke="#1D325F" stroke-miterlimit="10"/>
<path d="M85.3428 97.3469C30.0674 85.0919 -14.3082 138.879 6.02361 183.926C28.0258 232.693 85.2248 189.724 61.6028 176.303C49.7243 169.558 27.1653 182.963 19.4375 203.484C9.65127 229.481 5.55116 249.427 11.3385 279.414C22.9977 339.878 80.5172 375.764 132.891 339.742C159.229 321.622 185.331 291.652 225.084 289.269" stroke="#C4C4C4" stroke-miterlimit="10" stroke-dasharray="3.02 3.02"/>
<path d="M227.615 289.167C228.458 289.15 229.302 289.133 230.146 289.133" stroke="#1D325F" stroke-miterlimit="10"/>
<path d="M124.724 95.6735C124.724 92.3097 124.353 89.0304 123.644 85.8695C123.155 83.6889 124.1 81.4576 126.023 80.342L130.461 77.7727C132.874 76.3697 133.7 73.2764 132.317 70.8592L127.643 62.7456C126.243 60.3284 123.155 59.5001 120.742 60.8862L116.304 63.4555C114.381 64.5711 111.968 64.2669 110.331 62.7625C105.54 58.3338 99.7691 54.9531 93.408 52.9585C91.282 52.2992 89.831 50.3553 89.831 48.1241V42.9854C89.831 40.1964 87.57 37.9144 84.7691 37.9144H75.4047C72.6207 37.9144 70.3428 40.1795 70.3428 42.9854V48.1241C70.3428 50.3553 68.8749 52.2992 66.7658 52.9585C60.3879 54.9531 54.6342 58.3338 49.8423 62.7625C48.2057 64.2669 45.7928 64.5711 43.8693 63.4555L39.4318 60.8862C37.019 59.4832 33.9144 60.3115 32.5308 62.7456L27.857 70.8592C26.4566 73.2764 27.2833 76.3866 29.713 77.7727L34.1506 80.342C36.0741 81.4576 37.019 83.6889 36.5297 85.8695C35.821 89.0304 35.4498 92.3097 35.4498 95.6735C35.4498 99.0372 35.821 102.317 36.5297 105.477C37.019 107.658 36.0741 109.889 34.1506 111.005L29.713 113.574C27.3002 114.977 26.4735 118.071 27.857 120.488L32.5308 128.601C33.9312 131.019 37.019 131.847 39.4318 130.461L43.8693 127.891C45.7928 126.776 48.2057 127.08 49.8423 128.584C54.6342 133.013 60.4047 136.394 66.7658 138.388C68.8918 139.048 70.3428 140.992 70.3428 143.223V148.361C70.3428 151.151 72.6038 153.433 75.4047 153.433H84.7691C87.5532 153.433 89.831 151.167 89.831 148.361V143.223C89.831 140.992 91.2989 139.048 93.408 138.388C99.7859 136.394 105.54 133.013 110.331 128.584C111.968 127.08 114.381 126.776 116.304 127.891L120.742 130.461C123.155 131.864 126.259 131.035 127.643 128.601L132.317 120.488C133.717 118.071 132.89 114.96 130.461 113.574L126.023 111.005C124.1 109.889 123.155 107.658 123.644 105.477C124.353 102.317 124.724 99.0372 124.724 95.6735ZM80.0616 118.561C67.4407 118.561 57.2158 108.317 57.2158 95.6735C57.2158 83.0297 67.4407 72.7862 80.0616 72.7862C92.6825 72.7862 102.907 83.0297 102.907 95.6735C102.924 108.317 92.6825 118.561 80.0616 118.561Z" fill="white"/>
<path d="M191.017 116.701C191.017 114.098 190.731 111.563 190.191 109.129C189.819 107.438 190.545 105.714 192.03 104.852L195.455 102.874C197.328 101.793 197.969 99.3922 196.889 97.5328L193.278 91.2617C192.198 89.3854 189.803 88.7431 187.947 89.8249L184.504 91.8195C183.02 92.6816 181.147 92.4449 179.881 91.2786C176.169 87.8641 171.715 85.2441 166.788 83.7058C165.151 83.1987 164.021 81.6943 164.021 79.9702V75.9979C164.021 73.8342 162.266 72.0763 160.106 72.0763H152.868C150.708 72.0763 148.953 73.8342 148.953 75.9979V79.9702C148.953 81.6943 147.823 83.1987 146.186 83.7058C141.259 85.2441 136.805 87.8641 133.093 91.2786C131.827 92.4449 129.971 92.6816 128.47 91.8195L125.028 89.8249C123.155 88.7431 120.776 89.3854 119.696 91.2617L116.085 97.5328C115.005 99.4091 115.646 101.793 117.519 102.874L120.944 104.852C122.429 105.714 123.172 107.438 122.784 109.129C122.244 111.563 121.957 114.098 121.957 116.701C121.957 119.305 122.244 121.84 122.784 124.274C123.155 125.964 122.429 127.689 120.944 128.551L117.519 130.528C115.646 131.61 115.005 134.01 116.085 135.87L119.696 142.141C120.776 144.017 123.172 144.66 125.028 143.578L128.47 141.583C129.955 140.721 131.827 140.958 133.093 142.124C136.805 145.539 141.259 148.159 146.186 149.697C147.823 150.204 148.953 151.708 148.953 153.433V157.405C148.953 159.569 150.708 161.326 152.868 161.326H160.106C162.266 161.326 164.021 159.569 164.021 157.405V153.433C164.021 151.708 165.151 150.204 166.788 149.697C171.715 148.159 176.169 145.539 179.881 142.124C181.147 140.958 183.003 140.721 184.504 141.583L187.947 143.578C189.819 144.66 192.198 144.017 193.278 142.141L196.889 135.87C197.969 133.994 197.328 131.61 195.455 130.528L192.03 128.551C190.545 127.689 189.803 125.964 190.191 124.274C190.731 121.84 191.017 119.305 191.017 116.701ZM156.496 134.399C146.743 134.399 138.83 126.472 138.83 116.701C138.83 106.931 146.743 99.0035 156.496 99.0035C166.248 99.0035 174.161 106.931 174.161 116.701C174.161 126.472 166.248 134.399 156.496 134.399Z" fill="#1FC074"/>
<path d="M112.677 108.689C113.369 109.095 114.094 109.501 114.887 109.923" stroke="#1D325F" stroke-miterlimit="10"/>
<path d="M119.494 112.07C134.966 118.611 160.832 123.395 174.162 112.053C189.735 98.8175 189.955 69.7267 177.739 53.3135C173.116 47.093 163.869 42.2079 157.997 47.262C152.902 51.6569 154.792 60.4298 159.617 65.1121C168.847 74.054 184.572 72.6172 195.32 65.5854C230.129 42.8333 258.998 16.3625 297.62 7.79249C345.084 -2.73835 384.262 20.8588 369.819 54.6995C363.323 69.9295 356.506 85.3962 354.583 101.843C352.643 118.29 359.56 137.645 375.32 142.631C385.342 145.809 396.107 142.445 406.315 139.961C416.523 137.459 428.284 136.107 436.72 142.395C445.393 148.852 448.261 162.239 443.284 171.857C431.489 194.576 372.941 200.931 366.647 229.143" stroke="#C4C4C4" stroke-miterlimit="10" stroke-dasharray="3.02 3.02"/>
<path d="M366.242 231.679C366.158 232.507 366.107 233.352 366.107 234.214" stroke="#C4C4C4" stroke-miterlimit="10"/>
<path d="M394.706 172.804H314.51C309.735 172.804 305.854 168.916 305.854 164.132V49.8313C305.854 45.0477 309.735 41.1599 314.51 41.1599H394.706C399.481 41.1599 403.362 45.0477 403.362 49.8313V164.132C403.362 168.933 399.481 172.804 394.706 172.804Z" fill="white"/>
<path d="M314.51 41.1767H394.707C399.482 41.1767 403.362 45.0645 403.362 49.8482V164.149C403.362 168.933 399.482 172.821 394.707 172.821" stroke="#C4C4C4" stroke-width="0.25" stroke-miterlimit="10" stroke-linecap="round"/>
<path d="M378.239 76.505H321.259V81.1872H378.239V76.505Z" fill="#CFDEFF"/>
<path d="M378.239 94.524H321.259V99.2063H378.239V94.524Z" fill="#CFDEFF"/>
<path d="M378.239 112.543H321.259V117.225H378.239V112.543Z" fill="#CFDEFF"/>
<path d="M378.239 130.579H321.259V135.261H378.239V130.579Z" fill="#CFDEFF"/>
<path d="M378.239 148.598H321.259V153.28H378.239V148.598Z" fill="#CFDEFF"/>
<path d="M336.853 55.2221C337.049 55.2221 337.283 55.1794 337.557 55.0939V55.9252C337.278 56.0497 336.936 56.112 336.531 56.112C336.084 56.112 335.758 55.9997 335.553 55.7751C335.351 55.548 335.249 55.2086 335.249 54.757V52.7831H334.715V52.3107L335.33 51.9372L335.652 51.0729H336.366V51.9445H337.513V52.7831H336.366V54.757C336.366 54.9157 336.41 55.0329 336.498 55.1086C336.589 55.1842 336.707 55.2221 336.853 55.2221ZM339.278 53.9843C339.278 54.3896 339.344 54.696 339.476 54.9035C339.61 55.111 339.827 55.2148 340.127 55.2148C340.425 55.2148 340.639 55.1122 340.768 54.9071C340.9 54.6996 340.966 54.392 340.966 53.9843C340.966 53.579 340.9 53.2751 340.768 53.0724C340.636 52.8698 340.42 52.7685 340.12 52.7685C339.822 52.7685 339.607 52.8698 339.476 53.0724C339.344 53.2726 339.278 53.5766 339.278 53.9843ZM342.109 53.9843C342.109 54.6508 341.933 55.172 341.581 55.548C341.23 55.924 340.74 56.112 340.113 56.112C339.72 56.112 339.373 56.0265 339.073 55.8556C338.772 55.6823 338.542 55.4345 338.381 55.1122C338.219 54.7899 338.139 54.414 338.139 53.9843C338.139 53.3153 338.313 52.7953 338.663 52.4242C339.012 52.0531 339.502 51.8676 340.135 51.8676C340.528 51.8676 340.874 51.953 341.175 52.1239C341.475 52.2948 341.706 52.5402 341.867 52.86C342.028 53.1798 342.109 53.5546 342.109 53.9843ZM346.276 56.112C345.795 56.112 345.417 55.9252 345.141 55.5517C344.867 55.1781 344.731 54.6606 344.731 53.9989C344.731 53.3275 344.87 52.8051 345.148 52.4315C345.429 52.0556 345.815 51.8676 346.305 51.8676C346.82 51.8676 347.214 52.0678 347.485 52.4682H347.521C347.465 52.163 347.437 51.8908 347.437 51.6515V50.3405H348.558V56.0387H347.701L347.485 55.5077H347.437C347.183 55.9106 346.796 56.112 346.276 56.112ZM346.668 55.2221C346.954 55.2221 347.162 55.1391 347.294 54.9731C347.428 54.807 347.502 54.5251 347.514 54.1271V54.0063C347.514 53.5668 347.445 53.2519 347.309 53.0614C347.174 52.871 346.955 52.7758 346.65 52.7758C346.401 52.7758 346.206 52.882 346.067 53.0944C345.931 53.3044 345.862 53.6107 345.862 54.0136C345.862 54.4164 345.932 54.7191 346.071 54.9218C346.21 55.122 346.409 55.2221 346.668 55.2221ZM350.616 53.9843C350.616 54.3896 350.682 54.696 350.813 54.9035C350.948 55.111 351.165 55.2148 351.465 55.2148C351.763 55.2148 351.977 55.1122 352.106 54.9071C352.238 54.6996 352.304 54.392 352.304 53.9843C352.304 53.579 352.238 53.2751 352.106 53.0724C351.974 52.8698 351.758 52.7685 351.458 52.7685C351.16 52.7685 350.945 52.8698 350.813 53.0724C350.682 53.2726 350.616 53.5766 350.616 53.9843ZM353.446 53.9843C353.446 54.6508 353.271 55.172 352.919 55.548C352.568 55.924 352.078 56.112 351.451 56.112C351.058 56.112 350.711 56.0265 350.411 55.8556C350.11 55.6823 349.88 55.4345 349.718 55.1122C349.557 54.7899 349.477 54.414 349.477 53.9843C349.477 53.3153 349.651 52.7953 350 52.4242C350.35 52.0531 350.84 51.8676 351.473 51.8676C351.866 51.8676 352.212 51.953 352.513 52.1239C352.813 52.2948 353.044 52.5402 353.205 52.86C353.366 53.1798 353.446 53.5546 353.446 53.9843Z" fill="#2D2E2C"/>
<path d="M391.669 83.3678H385.916C385.005 83.3678 384.279 82.6409 384.279 81.7281V75.964C384.279 75.0513 385.005 74.3244 385.916 74.3244H391.669C392.58 74.3244 393.306 75.0513 393.306 75.964V81.7281C393.306 82.624 392.58 83.3678 391.669 83.3678Z" stroke="#C4C4C4" stroke-width="0.25" stroke-miterlimit="10" stroke-linecap="round"/>
<path d="M391.669 101.387H385.916C385.005 101.387 384.279 100.66 384.279 99.7472V93.9831C384.279 93.0704 385.005 92.3435 385.916 92.3435H391.669C392.58 92.3435 393.306 93.0704 393.306 93.9831V99.7472C393.306 100.66 392.58 101.387 391.669 101.387Z" stroke="#C4C4C4" stroke-width="0.25" stroke-miterlimit="10" stroke-linecap="round"/>
<path d="M391.669 119.406H385.916C385.005 119.406 384.279 118.679 384.279 117.766V112.002C384.279 111.089 385.005 110.363 385.916 110.363H391.669C392.58 110.363 393.306 111.089 393.306 112.002V117.766C393.306 118.679 392.58 119.406 391.669 119.406Z" stroke="#C4C4C4" stroke-width="0.25" stroke-miterlimit="10" stroke-linecap="round"/>
<path d="M391.669 137.442H385.916C385.005 137.442 384.279 136.715 384.279 135.802V130.038C384.279 129.125 385.005 128.398 385.916 128.398H391.669C392.58 128.398 393.306 129.125 393.306 130.038V135.802C393.306 136.715 392.58 137.442 391.669 137.442Z" stroke="#C4C4C4" stroke-width="0.25" stroke-miterlimit="10" stroke-linecap="round"/>
<path d="M391.669 155.461H385.916C385.005 155.461 384.279 154.734 384.279 153.821V148.057C384.279 147.144 385.005 146.418 385.916 146.418H391.669C392.58 146.418 393.306 147.144 393.306 148.057V153.821C393.306 154.734 392.58 155.461 391.669 155.461Z" stroke="#C4C4C4" stroke-width="0.25" stroke-miterlimit="10" stroke-linecap="round"/>
<path d="M385.916 81.6774L385.966 75.9472L391.669 75.9979L391.619 81.6774H385.916Z" fill="#1FC074"/>
<path d="M385.916 99.6965L385.966 93.9831L391.669 94.0338L391.619 99.6965H385.916Z" fill="#1FC074"/>
<path d="M385.916 117.716L385.966 112.002L391.669 112.053L391.619 117.716H385.916Z" fill="#1FC074"/>
<path d="M407.817 391.991H260.871C248.166 391.991 237.856 381.663 237.856 368.935V261.226C237.856 248.497 248.166 238.17 260.871 238.17H407.817C420.522 238.17 430.831 248.497 430.831 261.226V368.935C430.831 381.663 420.522 391.991 407.817 391.991Z" fill="white"/>
<path d="M430.831 261.226V368.934C430.831 381.663 420.522 391.991 407.817 391.991H260.871C248.166 391.991 237.857 381.663 237.857 368.934" stroke="#C4C4C4" stroke-width="0.25" stroke-miterlimit="10"/>
<path d="M237.84 261.226C237.84 248.497 248.149 238.17 260.854 238.17H407.8C420.505 238.17 430.814 248.497 430.814 261.226H237.84Z" fill="#1FC074"/>
<path d="M286.552 295.252H268.143C266.574 295.252 265.309 293.985 265.309 292.413V281.239C265.309 279.667 266.574 278.4 268.143 278.4H286.552C288.121 278.4 289.386 279.667 289.386 281.239V292.413C289.403 293.985 288.121 295.252 286.552 295.252Z" fill="#F2F2F2"/>
<path d="M315.05 295.252H296.642C295.072 295.252 293.807 293.985 293.807 292.413V281.239C293.807 279.667 295.072 278.4 296.642 278.4H315.05C316.619 278.4 317.885 279.667 317.885 281.239V292.413C317.885 293.985 316.619 295.252 315.05 295.252Z" fill="#F2F2F2"/>
<path d="M343.548 295.252H325.14C323.571 295.252 322.305 293.985 322.305 292.413V281.239C322.305 279.667 323.571 278.4 325.14 278.4H343.548C345.117 278.4 346.383 279.667 346.383 281.239V292.413C346.383 293.985 345.117 295.252 343.548 295.252Z" fill="#F2F2F2"/>
<path d="M372.03 295.252H353.621C352.052 295.252 350.787 293.985 350.787 292.413V281.239C350.787 279.667 352.052 278.4 353.621 278.4H372.03C373.599 278.4 374.864 279.667 374.864 281.239V292.413C374.864 293.985 373.599 295.252 372.03 295.252Z" fill="#F2F2F2"/>
<path d="M400.528 295.252H382.119C380.55 295.252 379.285 293.985 379.285 292.413V281.239C379.285 279.667 380.55 278.4 382.119 278.4H400.528C402.097 278.4 403.362 279.667 403.362 281.239V292.413C403.362 293.985 402.097 295.252 400.528 295.252Z" fill="#F2F2F2"/>
<path d="M286.552 318.883H268.143C266.574 318.883 265.309 317.616 265.309 316.044V304.87C265.309 303.298 266.574 302.031 268.143 302.031H286.552C288.121 302.031 289.386 303.298 289.386 304.87V316.044C289.403 317.599 288.121 318.883 286.552 318.883Z" fill="#F2F2F2"/>
<path d="M315.05 318.883H296.642C295.072 318.883 293.807 317.616 293.807 316.044V304.87C293.807 303.298 295.072 302.031 296.642 302.031H315.05C316.619 302.031 317.885 303.298 317.885 304.87V316.044C317.885 317.599 316.619 318.883 315.05 318.883Z" fill="#1FC074"/>
<path d="M343.548 318.883H325.14C323.571 318.883 322.305 317.616 322.305 316.044V304.87C322.305 303.298 323.571 302.031 325.14 302.031H343.548C345.117 302.031 346.383 303.298 346.383 304.87V316.044C346.383 317.599 345.117 318.883 343.548 318.883Z" fill="#F2F2F2"/>
<path d="M372.03 318.883H353.621C352.052 318.883 350.787 317.616 350.787 316.044V304.87C350.787 303.298 352.052 302.031 353.621 302.031H372.03C373.599 302.031 374.864 303.298 374.864 304.87V316.044C374.864 317.599 373.599 318.883 372.03 318.883Z" fill="#F2F2F2"/>
<path d="M400.528 318.883H382.119C380.55 318.883 379.285 317.616 379.285 316.044V304.87C379.285 303.298 380.55 302.031 382.119 302.031H400.528C402.097 302.031 403.362 303.298 403.362 304.87V316.044C403.362 317.599 402.097 318.883 400.528 318.883Z" fill="#F2F2F2"/>
<path d="M286.552 342.498H268.143C266.574 342.498 265.309 341.23 265.309 339.658V328.485C265.309 326.913 266.574 325.645 268.143 325.645H286.552C288.121 325.645 289.386 326.913 289.386 328.485V339.658C289.403 341.23 288.121 342.498 286.552 342.498Z" fill="#F2F2F2"/>
<path d="M315.05 342.498H296.642C295.072 342.498 293.807 341.23 293.807 339.658V328.485C293.807 326.913 295.072 325.645 296.642 325.645H315.05C316.619 325.645 317.885 326.913 317.885 328.485V339.658C317.885 341.23 316.619 342.498 315.05 342.498Z" fill="#F2F2F2"/>
<path d="M343.548 342.498H325.14C323.571 342.498 322.305 341.23 322.305 339.658V328.485C322.305 326.913 323.571 325.645 325.14 325.645H343.548C345.117 325.645 346.383 326.913 346.383 328.485V339.658C346.383 341.23 345.117 342.498 343.548 342.498Z" fill="#F2F2F2"/>
<path d="M372.03 342.498H353.621C352.052 342.498 350.787 341.23 350.787 339.658V328.485C350.787 326.913 352.052 325.645 353.621 325.645H372.03C373.599 325.645 374.864 326.913 374.864 328.485V339.658C374.864 341.23 373.599 342.498 372.03 342.498Z" fill="#1FC074"/>
<path d="M400.528 342.498H382.119C380.55 342.498 379.285 341.23 379.285 339.658V328.485C379.285 326.913 380.55 325.645 382.119 325.645H400.528C402.097 325.645 403.362 326.913 403.362 328.485V339.658C403.362 341.23 402.097 342.498 400.528 342.498Z" fill="#F2F2F2"/>
<path d="M286.552 366.129H268.143C266.574 366.129 265.309 364.861 265.309 363.289V352.116C265.309 350.544 266.574 349.276 268.143 349.276H286.552C288.121 349.276 289.386 350.544 289.386 352.116V363.289C289.403 364.844 288.121 366.129 286.552 366.129Z" fill="#F2F2F2"/>
<path d="M315.05 366.129H296.642C295.072 366.129 293.807 364.861 293.807 363.289V352.116C293.807 350.544 295.072 349.276 296.642 349.276H315.05C316.619 349.276 317.885 350.544 317.885 352.116V363.289C317.885 364.844 316.619 366.129 315.05 366.129Z" fill="#F2F2F2"/>
<path d="M343.548 366.129H325.14C323.571 366.129 322.305 364.861 322.305 363.289V352.116C322.305 350.544 323.571 349.276 325.14 349.276H343.548C345.117 349.276 346.383 350.544 346.383 352.116V363.289C346.383 364.844 345.117 366.129 343.548 366.129Z" fill="#F2F2F2"/>
<path d="M372.03 366.129H353.621C352.052 366.129 350.787 364.861 350.787 363.289V352.116C350.787 350.544 352.052 349.276 353.621 349.276H372.03C373.599 349.276 374.864 350.544 374.864 352.116V363.289C374.864 364.844 373.599 366.129 372.03 366.129Z" fill="#F2F2F2"/>
<path d="M400.528 366.129H382.119C380.55 366.129 379.285 364.861 379.285 363.289V352.116C379.285 350.544 380.55 349.276 382.119 349.276H400.528C402.097 349.276 403.362 350.544 403.362 352.116V363.289C403.362 364.844 402.097 366.129 400.528 366.129Z" fill="#F2F2F2"/>
<path d="M383.604 253.028C380.449 253.028 377.884 250.458 377.884 247.297V229.042C377.884 225.881 380.449 223.311 383.604 223.311C386.759 223.311 389.324 225.881 389.324 229.042V247.28C389.324 250.458 386.759 253.028 383.604 253.028Z" fill="#F2F2F2"/>
<path d="M389.324 229.042V247.28C389.324 250.441 386.759 253.011 383.604 253.011C380.449 253.011 377.884 250.441 377.884 247.28" stroke="#C4C4C4" stroke-width="0.25" stroke-miterlimit="10" stroke-linecap="round"/>
<path d="M339.38 294.492L329.307 284.4C327.873 282.964 327.873 280.614 329.307 279.177L339.38 289.269C340.815 290.705 340.815 293.038 339.38 294.492Z" fill="#42445D"/>
<path d="M326.692 291.872L336.765 281.78C338.199 280.344 340.545 280.344 341.979 281.78L331.906 291.872C330.472 293.309 328.126 293.309 326.692 291.872Z" fill="#42445D"/>
<path d="M282.401 341.72L272.328 331.629C270.894 330.192 270.894 327.842 272.328 326.405L282.401 336.497C283.835 337.934 283.835 340.283 282.401 341.72Z" fill="#42445D"/>
<path d="M269.713 339.117L279.786 329.025C281.22 327.589 283.565 327.589 284.999 329.025L274.926 339.117C273.492 340.554 271.147 340.554 269.713 339.117Z" fill="#42445D"/>
<path d="M396.36 365.351L386.287 355.26C384.853 353.823 384.853 351.473 386.287 350.036L396.36 360.128C397.794 361.565 397.794 363.897 396.36 365.351Z" fill="#42445D"/>
<path d="M383.672 362.731L393.745 352.64C395.179 351.203 397.524 351.203 398.959 352.64L388.885 362.731C387.451 364.185 385.106 364.185 383.672 362.731Z" fill="#42445D"/>
<path d="M250.545 279.16C310.138 279.16 358.447 230.763 358.447 171.063C358.447 111.362 310.138 62.9653 250.545 62.9653C190.953 62.9653 142.643 111.362 142.643 171.063C142.643 230.763 190.953 279.16 250.545 279.16Z" fill="url(#paint4_linear_70_156)"/>
<path d="M310.798 231.434C344.08 198.091 344.08 144.033 310.798 110.69C277.516 77.3478 223.555 77.3478 190.273 110.69C156.991 144.033 156.991 198.091 190.273 231.434C223.555 264.776 277.516 264.776 310.798 231.434Z" fill="white"/>
<path d="M253.616 104.903H247.457C246.546 104.903 245.82 104.159 245.82 103.263V93.0366C245.82 92.1238 246.563 91.3969 247.457 91.3969H253.616C254.527 91.3969 255.252 92.1407 255.252 93.0366V103.263C255.252 104.176 254.527 104.903 253.616 104.903Z" fill="#CFDEFF"/>
<path d="M220.191 112.239L214.859 115.315C214.066 115.772 213.07 115.501 212.615 114.707L207.502 105.849C207.047 105.055 207.317 104.058 208.11 103.601L213.441 100.525C214.235 100.068 215.23 100.339 215.686 101.133L220.798 109.991C221.237 110.768 220.967 111.782 220.191 112.239Z" fill="#CFDEFF"/>
<path d="M194.881 135.312L191.81 140.654C191.355 141.448 190.359 141.702 189.566 141.262L180.725 136.14C179.932 135.684 179.679 134.687 180.118 133.892L183.188 128.551C183.644 127.756 184.639 127.503 185.433 127.942L194.274 133.064C195.067 133.52 195.337 134.534 194.881 135.312Z" fill="#CFDEFF"/>
<path d="M184.505 167.986V174.156C184.505 175.069 183.762 175.796 182.868 175.796H172.66C171.749 175.796 171.023 175.052 171.023 174.156V167.986C171.023 167.074 171.766 166.347 172.66 166.347H182.868C183.762 166.347 184.505 167.074 184.505 167.986Z" fill="#CFDEFF"/>
<path d="M191.811 201.472L194.881 206.814C195.337 207.608 195.067 208.605 194.274 209.062L185.433 214.184C184.64 214.64 183.644 214.369 183.189 213.575L180.118 208.234C179.662 207.439 179.932 206.442 180.725 205.985L189.567 200.864C190.36 200.424 191.355 200.695 191.811 201.472Z" fill="#CFDEFF"/>
<path d="M214.859 226.827L220.191 229.904C220.984 230.36 221.237 231.357 220.798 232.152L215.686 241.009C215.23 241.804 214.235 242.057 213.442 241.618L208.11 238.541C207.317 238.085 207.064 237.088 207.502 236.293L212.615 227.436C213.07 226.641 214.066 226.371 214.859 226.827Z" fill="#CFDEFF"/>
<path d="M247.457 237.223H253.616C254.527 237.223 255.252 237.967 255.252 238.863V249.089C255.252 250.002 254.51 250.729 253.616 250.729H247.457C246.546 250.729 245.82 249.985 245.82 249.089V238.863C245.82 237.967 246.563 237.223 247.457 237.223Z" fill="#CFDEFF"/>
<path d="M280.899 229.904L286.231 226.827C287.024 226.371 288.019 226.641 288.475 227.436L293.587 236.293C294.043 237.088 293.773 238.085 292.98 238.541L287.648 241.618C286.855 242.074 285.86 241.804 285.404 241.009L280.292 232.152C279.836 231.357 280.106 230.36 280.899 229.904Z" fill="#CFDEFF"/>
<path d="M306.191 206.814L309.262 201.472C309.718 200.678 310.713 200.424 311.506 200.864L320.348 205.985C321.141 206.442 321.394 207.439 320.955 208.233L317.884 213.575C317.429 214.369 316.433 214.623 315.64 214.184L306.799 209.062C306.006 208.605 305.736 207.608 306.191 206.814Z" fill="#CFDEFF"/>
<path d="M316.585 174.156V167.986C316.585 167.074 317.328 166.347 318.222 166.347H328.43C329.341 166.347 330.067 167.091 330.067 167.986V174.156C330.067 175.069 329.324 175.796 328.43 175.796H318.222C317.311 175.796 316.585 175.052 316.585 174.156Z" fill="#CFDEFF"/>
<path d="M309.262 140.654L306.191 135.312C305.736 134.518 306.006 133.52 306.799 133.064L315.64 127.942C316.433 127.486 317.429 127.756 317.884 128.551L320.955 133.892C321.411 134.687 321.141 135.684 320.348 136.14L311.506 141.262C310.73 141.718 309.718 141.448 309.262 140.654Z" fill="#CFDEFF"/>
<path d="M286.231 115.315L280.899 112.239C280.106 111.782 279.853 110.785 280.292 109.991L285.404 101.133C285.86 100.339 286.855 100.085 287.648 100.525L292.98 103.601C293.773 104.058 294.026 105.055 293.588 105.849L288.475 114.707C288.02 115.501 287.007 115.772 286.231 115.315Z" fill="#CFDEFF"/>
<path d="M250.545 85.6836C297.62 85.6836 335.77 123.919 335.77 171.063C335.77 218.223 297.603 256.442 250.545 256.442" stroke="#C4C4C4" stroke-width="0.25" stroke-miterlimit="10"/>
<path d="M250.545 62.9823C310.14 62.9823 358.447 111.377 358.447 171.08C358.447 230.783 310.14 279.177 250.545 279.177" stroke="#C4C4C4" stroke-width="0.25" stroke-miterlimit="10"/>
<path d="M251.591 102.976C254.409 116.38 261.276 159.974 251.709 182.185C251.27 183.216 249.803 183.216 249.364 182.185C239.797 159.974 246.664 116.38 249.482 102.976C249.718 101.826 251.355 101.826 251.591 102.976Z" fill="#42445D"/>
<path d="M198.054 170.251C208.38 168.071 245.179 162.746 262.305 170.167C263.098 170.505 263.098 171.638 262.305 171.993C245.179 179.396 208.38 174.089 198.054 171.908C197.159 171.705 197.159 170.437 198.054 170.251Z" fill="#42445D"/>
<path d="M96.6981 169.457L103.633 149.9H124.302L119.628 166.516L96.6981 169.457Z" fill="#F4B7BC" stroke="#F4B7BC" stroke-width="0.25" stroke-miterlimit="10" stroke-linecap="round" stroke-linejoin="round"/>
<path d="M126.244 142.511C128.257 133.971 122.978 125.413 114.453 123.396C105.928 121.38 97.3858 126.668 95.3729 135.208C93.36 143.749 98.6388 152.307 107.164 154.323C115.688 156.34 124.231 151.051 126.244 142.511Z" fill="#F4B7BC" stroke="#F4B7BC" stroke-width="0.25" stroke-miterlimit="10" stroke-linecap="round" stroke-linejoin="round"/>
<path d="M125.045 131.813C128.723 139.267 129.314 151.269 125.517 156.475C121.721 161.681 116.726 156.069 115.63 153.28C115.63 153.28 112.188 150.153 112.728 147.685C113.369 144.795 117.081 145.217 117.621 148.378" fill="#F4B7BC"/>
<path d="M125.045 131.813C128.723 139.267 129.314 151.269 125.517 156.475C121.721 161.681 116.726 156.069 115.63 153.28C115.63 153.28 112.188 150.153 112.728 147.685C113.369 144.795 117.081 145.217 117.621 148.378" stroke="#F4B7BC" stroke-width="0.25" stroke-miterlimit="10" stroke-linecap="round" stroke-linejoin="round"/>
<path d="M114.415 151.962C115.984 153.449 117.789 152.148 117.502 150.17" stroke="#2D2E2C" stroke-width="0.25" stroke-miterlimit="10" stroke-linecap="round" stroke-linejoin="round"/>
<path d="M115.967 145.995C117.587 146.874 118.295 149.393 120.388 149.004C121.957 148.716 122.379 146.857 122.092 145.556C121.805 144.254 121.434 142.395 122.159 141.516C122.885 140.637 125.247 138.946 123.728 136.8C122.21 134.653 125.365 132.523 125.838 129.937C126.681 125.238 120.725 117.293 109.724 119.44C96.1076 122.094 96.7488 131.509 96.7488 131.509C96.7488 131.509 94.066 132.624 92.6487 136.85C91.4001 140.569 92.7668 144.761 97.3394 149.19C101.912 153.618 100.798 154.92 99.904 156.036C98.9929 157.151 99.6003 158.453 103.026 158.656C106.451 158.859 114.06 158.656 114.432 151.996C114.432 151.996 113.183 150.508 112.761 148.818C112.238 146.823 114.145 144.998 115.967 145.995Z" fill="#2D2E2C" stroke="#00030E" stroke-width="0.25" stroke-miterlimit="10" stroke-linecap="round" stroke-linejoin="round"/>
<path d="M96.5126 164.792C96.7657 164.623 100.613 162.831 109.673 162.831C113.267 162.831 117.216 163.118 121.4 163.676L121.518 163.693L122.868 166.736L93.7792 170.336L96.5126 164.792Z" fill="url(#paint5_linear_70_156)"/>
<path d="M144.195 156.306C142.795 155.258 141.107 154.7 139.353 154.7H136.974L131.895 153.263C131.136 153.044 130.343 153.23 129.752 153.754C128.335 155.005 125.703 157.371 124.42 158.571C124.117 158.859 124.505 159.501 124.791 159.585C125.905 159.957 127.204 159.619 128.2 158.892L128.487 158.69L130.613 161.174C131.962 162.746 132.992 164.589 133.667 166.55C136.451 174.731 141.715 173.649 144.685 175.83L151.282 161.834C148.278 159.399 145.815 157.523 144.195 156.306ZM131.574 157.591L133.565 158.25L133.869 159.67L131.574 157.591Z" fill="#F4B7BC" stroke="#F4B7BC" stroke-width="0.25" stroke-miterlimit="10" stroke-linecap="round" stroke-linejoin="round"/>
<path d="M144.668 168.088C143.942 169.017 139.842 168.274 135.337 169.44V170.032C138.223 174.41 142.238 174.004 144.685 175.796L151.282 161.8C147.908 163.828 145.41 167.175 144.668 168.088Z" fill="#2D2E2C" stroke="#2D2E2C" stroke-width="0.25" stroke-miterlimit="10" stroke-linecap="round" stroke-linejoin="round"/>
<path d="M89.5106 272.23C72.0978 263.913 55.9168 236.733 54.7357 228.23C53.6558 220.421 69.5838 176.387 89.7806 171.046L90.0674 170.961L86.1023 216.533C78.0033 224.799 76.8897 229.785 76.8729 229.819C76.2992 236.919 95.0449 256.391 95.2305 256.594L95.3149 256.696L89.6793 272.348L89.5106 272.23Z" fill="url(#paint6_linear_70_156)"/>
<path d="M89.9659 252.622C90.1009 255.614 89.8815 263.44 87.8737 271.131C88.4473 271.452 89.021 271.74 89.5947 272.027L95.0952 256.729C95.0952 256.729 92.7331 254.295 89.7128 250.813C89.8647 251.591 89.949 252.216 89.9659 252.622Z" fill="#2D2E2C" stroke="#2D2E2C" stroke-width="0.25" stroke-miterlimit="10" stroke-linecap="round" stroke-linejoin="round"/>
<path d="M85.9165 216.499L89.0548 188.659C77.6994 190.823 74.8141 199.596 77.0414 206.864C79.4879 214.809 79.9097 215.654 81.7826 221.097C82.9131 219.711 84.263 218.173 85.9165 216.499Z" fill="#2D2E2C" stroke="#2D2E2C" stroke-width="0.25" stroke-miterlimit="10" stroke-linecap="round" stroke-linejoin="round"/>
<path d="M90.0334 297.399C86.2708 288.39 87.5869 281.51 89.1054 273.565C90.8939 264.184 92.9356 253.535 87.5194 236.124C81.8332 217.801 78.2899 202.74 76.2989 193.325C74.2573 183.605 80.1797 173.801 89.7803 171.029C97.255 168.865 108.695 166.296 120.691 166.296C127.052 166.296 133.009 167.023 138.357 168.443C145.309 170.302 150.556 175.847 152.075 182.912C152.463 184.704 152.935 186.749 153.458 189.065C157.744 207.676 165.708 242.294 162.705 297.315L162.688 297.517H90.084L90.0334 297.399Z" fill="url(#paint7_linear_70_156)"/>
<path d="M135.86 205.715C144.263 214.64 160.731 231.915 160.731 231.915C160.731 231.915 159.465 216.854 155.989 203.534L135.86 205.715Z" fill="#00030E" stroke="#00030E" stroke-width="0.25" stroke-miterlimit="10" stroke-linecap="round"/>
<path d="M144.482 175.914V175.813C144.111 166.499 151.096 161.681 151.164 161.631L151.282 161.546L151.4 161.631C151.485 161.698 160.292 168.274 168.374 176.945C175.866 184.974 184.252 196.486 181.67 205.749L181.586 206.053L144.482 175.914Z" fill="url(#paint8_linear_70_156)"/>
<path d="M144.685 175.813L156.563 185.465L168.155 185.008C161.034 177.926 150.523 170.488 146.423 167.682C145.343 169.829 144.55 172.517 144.685 175.813Z" fill="#2D2E2C" stroke="#2D2E2C" stroke-width="0.25" stroke-miterlimit="10"/>
<path d="M164.375 213.812C154.251 213.812 142.542 210.549 135.894 205.884C127.525 200.018 124.505 184.484 127.474 175.018C128.925 170.387 131.676 167.834 135.202 167.834C135.472 167.834 135.742 167.851 136.029 167.885C148.009 169.153 170.821 184.095 178.835 195.911C181.467 199.782 182.412 203.095 181.67 205.766C180.269 210.87 173.959 213.812 164.375 213.812Z" fill="url(#paint9_linear_70_156)"/>
<path d="M127.188 189.606C128.385 196.131 131.338 202.436 136.012 205.715C148.515 214.488 178.127 217.852 181.484 205.715" stroke="#00030E" stroke-width="0.25" stroke-miterlimit="10" stroke-linecap="round"/>
<path d="M173.217 189.606C162.84 179.261 145.528 169.119 136.012 168.105" stroke="#2D2E2C" stroke-width="0.25" stroke-miterlimit="10" stroke-linecap="round"/>
<path d="M181.484 205.715C186.428 187.966 151.282 161.817 151.282 161.817C151.282 161.817 146.828 164.809 145.225 170.775" stroke="#2D2E2C" stroke-width="0.25" stroke-miterlimit="10" stroke-linecap="round"/>
<path d="M89.8479 171.232C100.022 168.291 113.74 165.654 127.204 166.769" stroke="#00030E" stroke-width="0.25" stroke-miterlimit="10" stroke-linecap="round" stroke-linejoin="round"/>
<path d="M91.7884 433.827C89.3924 433.827 87.452 433.354 86.0178 432.441L85.9335 432.39L85.9166 432.289C81.226 389.743 85.7479 372.636 88.4475 362.427C89.0381 360.179 89.5611 358.235 89.8648 356.426C91.7377 345.625 92.6995 303.113 92.7164 302.673C91.6702 300.949 90.7422 299.14 90.0167 297.399L89.8986 297.112H122.75V312.933L104.342 431.19L104.224 431.224C99.2968 432.965 95.1123 433.827 91.7884 433.827Z" fill="url(#paint10_linear_70_156)"/>
<path d="M115.039 301.49L113.959 368.14L122.564 312.933V301.49H115.039Z" fill="#2D2E2C" stroke="#2D2E2C" stroke-width="0.25" stroke-miterlimit="10" stroke-linecap="round"/>
<path d="M129.499 436.244C125.331 436.244 121.906 434.858 120.135 432.458C120.286 413.509 121.687 379.262 129.043 361.379C134.763 347.45 120.961 308.708 120.185 306.578C119.409 306.257 113.942 303.822 109.808 297.45L109.589 297.129H157.424L157.407 297.348C155.163 338.136 149.51 383.624 140.568 432.542C137.919 434.875 133.7 436.244 129.499 436.244Z" fill="url(#paint11_linear_70_156)"/>
<path d="M157.204 297.314H90.236C90.5734 298.109 90.9446 298.937 91.3664 299.765H157.052C157.103 298.954 157.154 298.126 157.204 297.314Z" fill="#2D2E2C" stroke="#2D2E2C" stroke-width="0.25" stroke-miterlimit="10"/>
<path d="M154.066 441.062C153.29 439.895 152.227 438.932 150.995 438.256L140.365 432.491C135.354 436.785 124.252 437.681 120.287 432.339C120.253 435.72 120.253 438.577 120.27 440.723C120.286 443.09 122.21 445 124.572 445H154.218C155.264 445 155.888 443.834 155.298 442.972L154.066 441.062Z" fill="#2D2E2C" stroke="#2D2E2C" stroke-width="0.25" stroke-miterlimit="10" stroke-linecap="round" stroke-linejoin="round"/>
<path d="M86.1359 432.272C86.5239 435.72 86.9626 439.354 87.4688 443.158C87.6038 444.206 88.4981 445 89.5442 445H107.143C108.543 445 109.572 443.665 109.167 442.312C107.817 437.833 104.139 431.038 104.139 431.038C98.3855 433.049 90.4047 435.01 86.1359 432.272Z" fill="#2D2E2C" stroke="#2D2E2C" stroke-width="0.25" stroke-miterlimit="10" stroke-linecap="round" stroke-linejoin="round"/>
<path d="M247.508 17.7825L249.246 22.4985C250.815 26.7582 254.173 30.1051 258.408 31.6771L263.115 33.4182L258.408 35.1592C254.156 36.7312 250.815 40.095 249.246 44.3378L247.508 49.0538L245.77 44.3378C244.201 40.0781 240.843 36.7312 236.608 35.1592L231.9 33.4182L236.608 31.6771C240.86 30.1051 244.201 26.7413 245.77 22.4985L247.508 17.7825Z" fill="#FFC200"/>
<path d="M424.909 91.3631L426.647 96.0791C428.216 100.339 431.574 103.686 435.809 105.258L440.516 106.999L435.809 108.74C431.557 110.312 428.216 113.676 426.647 117.918L424.909 122.634L423.171 117.918C421.602 113.659 418.244 110.312 414.009 108.74L409.302 106.999L414.009 105.258C418.261 103.686 421.602 100.322 423.171 96.0791L424.909 91.3631Z" fill="#FFC200"/>
<path d="M57.2159 267.243L58.9538 271.959C60.523 276.219 63.8807 279.566 68.1158 281.138L72.8233 282.879L68.1158 284.62C63.8638 286.192 60.523 289.556 58.9538 293.799L57.2159 298.515L55.478 293.799C53.9088 289.539 50.5511 286.192 46.3161 284.62L41.6085 282.879L46.3161 281.138C50.568 279.566 53.9088 276.202 55.478 271.959L57.2159 267.243Z" fill="#FFC200"/>
<path d="M383.604 168.155L384.735 171.215C385.747 173.97 387.924 176.151 390.691 177.182L393.745 178.314L390.691 179.447C387.941 180.461 385.764 182.642 384.735 185.414L383.604 188.473L382.474 185.414C381.461 182.659 379.285 180.478 376.518 179.447L373.464 178.314L376.518 177.182C379.268 176.168 381.444 173.987 382.474 171.215L383.604 168.155Z" fill="#FFC200"/>
<path d="M369.06 195.471L369.549 196.807C369.988 198.007 370.933 198.954 372.131 199.393L373.464 199.883L372.131 200.373C370.933 200.813 369.988 201.759 369.549 202.96L369.06 204.295L368.571 202.96C368.132 201.759 367.187 200.813 365.989 200.373L364.656 199.883L365.989 199.393C367.187 198.954 368.132 198.007 368.571 196.807L369.06 195.471Z" fill="#FFC200"/>
<path d="M177.755 272.095L178.245 273.43C178.683 274.63 179.628 275.577 180.826 276.016L182.159 276.507L180.826 276.997C179.628 277.436 178.683 278.383 178.245 279.583L177.755 280.918L177.266 279.583C176.828 278.383 175.883 277.436 174.685 276.997L173.352 276.507L174.685 276.016C175.883 275.577 176.828 274.63 177.266 273.43L177.755 272.095Z" fill="#FFC200"/>
<path d="M409.302 213.186L409.791 214.522C410.23 215.722 411.174 216.668 412.372 217.108L413.705 217.598L412.372 218.088C411.174 218.528 410.23 219.474 409.791 220.674L409.302 222.01L408.812 220.674C408.374 219.474 407.429 218.528 406.231 218.088L404.898 217.598L406.231 217.108C407.429 216.668 408.374 215.722 408.812 214.522L409.302 213.186Z" fill="#FFC200"/>
<path d="M41.6083 249.36L42.0976 250.695C42.5363 251.895 43.4812 252.842 44.6792 253.281L46.0121 253.771L44.6792 254.262C43.4812 254.701 42.5363 255.648 42.0976 256.848L41.6083 258.183L41.119 256.848C40.6803 255.648 39.7354 254.701 38.5374 254.262L37.2045 253.771L38.5374 253.281C39.7354 252.842 40.6803 251.895 41.119 250.695L41.6083 249.36Z" fill="#FFC200"/>
<path d="M286.94 46.1295L287.429 47.4649C287.868 48.665 288.812 49.6116 290.01 50.0511L291.343 50.5413L290.01 51.0315C288.812 51.471 287.868 52.4176 287.429 53.6177L286.94 54.9531L286.45 53.6177C286.012 52.4176 285.067 51.471 283.869 51.0315L282.536 50.5413L283.869 50.0511C285.067 49.6116 286.012 48.665 286.45 47.4649L286.94 46.1295Z" fill="#FFC200"/>
<path d="M273.138 375.07C274.909 383.556 274.673 392.109 273.273 399.834C272.48 403.722 271.568 407.39 270.303 410.804C269.696 412.512 269.071 414.151 268.396 415.723C267.688 417.295 266.979 418.783 266.253 420.203C264.853 423.042 263.284 425.561 261.867 427.742C260.449 429.922 259.083 431.765 257.868 433.235C255.472 436.193 253.903 437.765 253.903 437.765C253.903 437.765 252.485 435.974 250.376 432.931C249.33 431.393 248.065 429.55 246.681 427.505C245.297 425.443 243.846 423.127 242.26 420.659C241.484 419.425 240.708 418.14 239.932 416.822C239.139 415.504 238.312 414.151 237.536 412.765C236.017 409.993 234.364 407.119 232.98 404.128C230.044 398.161 227.564 391.822 226.164 385.06C224.696 378.316 224.392 371.521 224.645 364.878C224.696 361.582 225.033 358.268 225.286 355.124C225.438 353.536 225.641 351.98 225.826 350.442C225.995 348.921 226.18 347.433 226.4 345.997C226.855 343.089 227.227 340.402 227.648 337.934C228.087 335.5 228.492 333.319 228.813 331.476C229.504 327.825 230.078 325.611 230.078 325.611C230.078 325.611 232.153 326.405 235.545 328.13C237.249 328.992 239.257 330.107 241.433 331.527C243.627 332.93 246.074 334.604 248.503 336.615C249.735 337.612 251 338.694 252.283 339.844C253.531 341.01 254.763 342.244 256.012 343.562C258.559 346.166 260.888 349.158 263.183 352.369C267.62 358.894 271.315 366.602 273.138 375.07Z" fill="url(#paint12_linear_70_156)"/>
<path d="M265.494 356.02L264.819 354.888C263.891 356.544 262.727 358.725 261.512 361.277C260.247 363.846 258.88 366.788 257.665 369.965C255.1 376.372 252.924 383.691 252.266 391.399C251.169 384.164 249.634 376.997 247.778 369.915C247.39 368.461 247.137 367.024 246.951 365.588C246.748 364.168 246.63 362.731 246.613 361.328C246.597 358.488 246.782 355.716 247.221 353.028C247.676 350.324 248.233 347.754 248.891 345.354C249.566 342.954 250.342 340.706 251.034 338.745L250.14 337.967C247.913 344.188 245.247 353.045 245.567 362.122C241.838 349.631 236.827 337.528 230.871 325.949C230.382 325.746 230.112 325.645 230.112 325.645C230.112 325.645 230.044 325.932 229.909 326.456C235.832 337.984 240.826 350.019 244.538 362.46C239.746 354.702 231.951 350.138 226.164 347.923L226.029 348.988C227.868 349.698 229.825 350.662 231.867 351.862C233.908 353.062 236.017 354.516 237.924 356.274C239.864 358.032 241.737 360.043 243.222 362.393C243.981 363.559 244.673 364.793 245.297 366.095C245.871 367.413 246.36 368.782 246.732 370.219C248.588 377.268 250.123 384.401 251.203 391.602C248.334 384.435 243.171 378.857 238.11 374.918C235.511 372.957 232.98 371.368 230.652 370.135C228.29 368.917 226.197 368.038 224.578 367.413V368.512C228.492 370.016 234.836 373.076 240.539 378.383C246.276 383.64 251.372 391.23 252.401 400.51C252.738 403.417 252.975 406.342 253.228 409.266C253.363 412.19 253.633 415.115 253.666 418.039C251.152 408.725 245.011 401.457 239.324 396.774C233.554 392.058 228.374 389.759 227.176 389.269L227.547 390.52C228.829 391.095 231.006 392.21 233.706 393.951C236.439 395.693 239.51 398.076 242.513 401.135C248.469 407.221 253.869 416.315 253.717 427.015C253.734 430.395 253.514 433.759 253.363 437.123C253.683 437.545 253.869 437.782 253.869 437.782C253.869 437.782 254.071 437.562 254.442 437.19C254.594 433.81 254.797 430.429 254.797 427.031C254.932 416.399 258.88 406.815 263.216 398.735C265.359 394.729 267.671 391.129 269.577 388.255C271.518 385.381 273.222 383.184 274.116 382.018L273.931 380.395C273.104 381.426 269.206 386.345 265.157 393.14C261.04 399.986 256.636 408.573 254.712 417.988C254.679 415.047 254.409 412.106 254.274 409.165C254.021 406.24 253.784 403.299 253.447 400.375C252.418 391.112 254.375 382.356 257.058 374.546C259.825 366.754 263.267 360.026 265.494 356.02Z" fill="white"/>
<path d="M332.885 375.611C333.813 377.099 336.563 378.62 339.566 381.223C342.57 383.793 345.893 387.478 347.631 392.566C349.724 398.786 349.538 405.006 348.677 409.925C347.851 414.878 346.467 418.597 346.518 420.896C346.467 418.58 344.881 414.946 342.806 410.72C340.747 406.477 338.199 401.744 336.411 396.369C334.909 391.991 334.589 387.697 334.319 383.962C334.066 380.226 333.829 377.116 332.885 375.611Z" fill="#42445D"/>
<path d="M461 355.615C459.178 357.558 457.355 361.565 455.331 366.602C453.272 371.639 450.978 377.589 447.62 383.86C445.595 387.731 443.537 391.348 441.562 394.814C439.656 398.296 437.749 401.558 436.163 404.635C432.924 410.754 430.629 416.044 430.14 419.493C430.612 416.061 429.954 410.365 430.443 403.046C430.646 399.395 431.236 395.388 432.249 391.146C433.312 386.937 434.898 382.559 437.159 378.248C440.921 371.233 446.118 366.314 450.674 362.917C455.213 359.485 459.178 357.542 461 355.615Z" fill="#42445D"/>
<path d="M325.056 387.951C324.549 388.982 325.039 391.23 325.595 393.816C326.135 396.42 326.709 399.259 326 402.048C325.157 405.463 323.25 408.438 321.614 411.193C319.96 413.915 318.576 416.366 318.644 417.853C318.576 416.366 316.99 414.067 315.691 410.821C314.392 407.61 313.447 403.418 314.493 399.158C315.371 395.676 317.817 393.191 320.112 391.534C322.407 389.861 324.549 388.965 325.056 387.951Z" fill="#42445D"/>
<path d="M233.234 353.164C232.103 355.412 231.597 359.587 231.209 364.726C230.77 369.881 230.365 375.916 228.999 382.491C227.362 390.554 225.32 397.924 223.954 404.381C222.536 410.804 221.76 416.213 222.233 419.493C221.76 416.247 219.6 411.244 218.031 404.466C217.221 401.085 216.648 397.282 216.411 393.157C216.243 389.05 216.496 384.621 217.39 380.108C218.942 372.721 222.418 366.855 225.691 362.562C228.965 358.218 232.12 355.412 233.234 353.164Z" fill="#42445D"/>
<path d="M200.483 377.403C201.125 378.84 203.504 380.446 206.035 382.964C208.582 385.466 211.316 388.897 212.514 393.461C213.965 399.04 213.408 404.499 212.412 408.86C211.451 413.238 210.101 416.568 210.168 418.614C210.101 416.552 208.464 413.357 206.524 409.57C204.583 405.767 202.322 401.423 201.04 396.487C199.977 392.447 200.197 388.526 200.483 385.111C200.804 381.68 201.125 378.84 200.483 377.403Z" fill="#42445D"/>
<path d="M81.7322 357.643C80.7367 359.604 80.4668 363.323 80.2812 367.853C80.0618 372.4 79.8594 377.674 78.6108 383.336C77.126 390.284 75.0675 396.605 73.5658 402.184C72.0472 407.728 71.0686 412.461 71.4229 415.301C71.0855 412.461 69.0776 408.1 67.6434 402.15C66.1586 396.25 65.3318 388.712 67.0191 380.801C68.4533 374.344 71.7098 369.29 74.7806 365.638C77.8346 361.937 80.7536 359.587 81.7322 357.643Z" fill="#42445D"/>
<path d="M117.536 4.41177L119.274 9.12784C120.843 13.3875 124.201 16.7344 128.436 18.3064L133.144 20.0475L128.436 21.7885C124.184 23.3605 120.843 26.7243 119.274 30.9671L117.536 35.6831L115.798 30.9671C114.229 26.7074 110.872 23.3605 106.636 21.7885L101.929 20.0475L106.636 18.3064C110.888 16.7344 114.229 13.3706 115.798 9.12784L117.536 4.41177Z" fill="#FFC200"/>
<path d="M72.8232 0.642334L73.9537 3.70185C74.966 6.45711 77.1426 8.63766 79.9098 9.66877L82.9638 10.8013L79.9098 11.9338C77.1595 12.948 74.9829 15.1286 73.9537 17.9007L72.8232 20.9603L71.6927 17.9007C70.6803 15.1455 68.5037 12.9649 65.7366 11.9338L62.6826 10.8013L65.7366 9.66877C68.4869 8.65456 70.6635 6.47402 71.6927 3.70185L72.8232 0.642334Z" fill="#FFC200"/>
<path d="M145.241 0L145.731 1.33537C146.169 2.53552 147.114 3.48211 148.312 3.9216L149.645 4.4118L148.312 4.902C147.114 5.34149 146.169 6.28808 145.731 7.48823L145.241 8.8236L144.752 7.48823C144.313 6.28808 143.369 5.34149 142.171 4.902L140.838 4.4118L142.171 3.9216C143.369 3.48211 144.313 2.53552 144.752 1.33537L145.241 0Z" fill="#FFC200"/>
<path d="M171.006 20.0475L171.496 21.3828C171.934 22.583 172.879 23.5296 174.077 23.9691L175.41 24.4593L174.077 24.9495C172.879 25.389 171.934 26.3355 171.496 27.5357L171.006 28.8711L170.517 27.5357C170.078 26.3355 169.133 25.389 167.935 24.9495L166.602 24.4593L167.935 23.9691C169.133 23.5296 170.078 22.583 170.517 21.3828L171.006 20.0475Z" fill="#FFC200"/>
<defs>
<linearGradient id="paint0_linear_70_156" x1="196.067" y1="280.312" x2="196.067" y2="434.62" gradientUnits="userSpaceOnUse">
<stop stop-color="#C6D9FA"/>
<stop offset="1" stop-color="#FEFEFE"/>
</linearGradient>
<linearGradient id="paint1_linear_70_156" x1="53.5732" y1="280.313" x2="53.5732" y2="434.621" gradientUnits="userSpaceOnUse">
<stop stop-color="#C6D9FA"/>
<stop offset="1" stop-color="#FEFEFE"/>
</linearGradient>
<linearGradient id="paint2_linear_70_156" x1="420.426" y1="280.313" x2="420.426" y2="434.62" gradientUnits="userSpaceOnUse">
<stop stop-color="#C6D9FA"/>
<stop offset="1" stop-color="#FEFEFE"/>
</linearGradient>
<linearGradient id="paint3_linear_70_156" x1="382.302" y1="280.313" x2="382.302" y2="434.62" gradientUnits="userSpaceOnUse">
<stop stop-color="#C6D9FA"/>
<stop offset="1" stop-color="#FEFEFE"/>
</linearGradient>
<linearGradient id="paint4_linear_70_156" x1="250.541" y1="279.158" x2="250.541" y2="62.9755" gradientUnits="userSpaceOnUse">
<stop stop-color="#FEFEFE"/>
<stop offset="1" stop-color="#C4C4C4"/>
</linearGradient>
<linearGradient id="paint5_linear_70_156" x1="97.6571" y1="177.812" x2="157.992" y2="117.587" gradientUnits="userSpaceOnUse">
<stop stop-color="#13469F"/>
<stop offset="1" stop-color="#0E55CB"/>
</linearGradient>
<linearGradient id="paint6_linear_70_156" x1="41.519" y1="267.864" x2="359.964" y2="-50.0044" gradientUnits="userSpaceOnUse">
<stop stop-color="#13469F"/>
<stop offset="1" stop-color="#0E55CB"/>
</linearGradient>
<linearGradient id="paint7_linear_70_156" x1="66.3245" y1="292.615" x2="383.668" y2="-24.1542" gradientUnits="userSpaceOnUse">
<stop stop-color="#13469F"/>
<stop offset="1" stop-color="#0E55CB"/>
</linearGradient>
<linearGradient id="paint8_linear_70_156" x1="59.4362" y1="290.888" x2="384.18" y2="-33.2679" gradientUnits="userSpaceOnUse">
<stop stop-color="#13469F"/>
<stop offset="1" stop-color="#0E55CB"/>
</linearGradient>
<linearGradient id="paint9_linear_70_156" x1="58.4616" y1="286.296" x2="378.042" y2="-32.706" gradientUnits="userSpaceOnUse">
<stop stop-color="#13469F"/>
<stop offset="1" stop-color="#0E55CB"/>
</linearGradient>
<linearGradient id="paint10_linear_70_156" x1="75.4981" y1="354.209" x2="425.021" y2="482.647" gradientUnits="userSpaceOnUse">
<stop stop-color="#13469F"/>
<stop offset="1" stop-color="#0E55CB"/>
</linearGradient>
<linearGradient id="paint11_linear_70_156" x1="79.1789" y1="343.507" x2="428.156" y2="471.744" gradientUnits="userSpaceOnUse">
<stop stop-color="#13469F"/>
<stop offset="1" stop-color="#0E55CB"/>
</linearGradient>
<linearGradient id="paint12_linear_70_156" x1="249.482" y1="280.312" x2="249.482" y2="434.621" gradientUnits="userSpaceOnUse">
<stop stop-color="#C6D9FA"/>
<stop offset="1" stop-color="#FEFEFE"/>
</linearGradient>
</defs>
</svg>
